<svg id="Layer_1" data-name="Layer 1" xmlns="http://www.w3.org/2000/svg" xmlns:xlink="http://www.w3.org/1999/xlink" viewBox="0 0 96 96"><defs><style>.cls-1{fill:none;}.cls-2{fill:#0078d7;}.cls-3{clip-path:url(#clip-path);}.cls-4{fill:#fff;}</style><clipPath id="clip-path"><rect class="cls-1" width="96" height="96"/></clipPath></defs><rect class="cls-2" width="150" height="150"/><g class="cls-3"><path class="cls-4" d="M72.24,52.61a6.48,6.48,0,0,1,5.59,6.72c0,2.94-1.63,6.41-5.59,6.41h-32c-6.15,0-8.36-4.21-8.36-8.53,0-7.25,8.07-7.51,8.07-7.51s.66-7.93,7.71-9.54c6.29-1.43,9.83,1.87,11.54,4.42a9.66,9.66,0,0,1,8.17-.29,8.24,8.24,0,0,1,4.89,8.32"/><path class="cls-4" d="M29.82,57.48c0-8.08,8.53-9.28,8.53-9.28s1.09-7.74,8.83-9.73c6-1.54,10.55,1.15,12.49,4.16a7.31,7.31,0,0,1,4.19-.84,13.11,13.11,0,0,0-8.21-10.58A12.33,12.33,0,0,0,40,36.92a9.73,9.73,0,0,0-9.3-.16,10.35,10.35,0,0,0-5.32,10.17,7.88,7.88,0,0,0-7.19,8.26,8.27,8.27,0,0,0,7.93,8h5.35a10.34,10.34,0,0,1-1.63-5.72"/></g></svg>